<svg width="176" height="176" viewBox="0 0 176 176" fill="none" xmlns="http://www.w3.org/2000/svg">
<path opacity="0.5" d="M88.0002 0.000358886C136.601 0.000358886 176 39.3994 176 88.0002C176 136.601 136.601 176 88.0002 176C39.3994 176 0.000365012 136.601 0.000365012 88.0002C-0.137926 39.5372 39.0366 0.13865 87.4992 0.000358886C87.6662 -0.000119629 87.8332 -0.000119629 88.0002 0.000358886Z" fill="#FCAC0D" fill-opacity="0.5"/>
<path opacity="0.8" d="M88.0001 11.8923C130.033 11.8923 164.108 45.9671 164.108 88.0002C164.108 130.033 130.033 164.108 88.0001 164.108C45.967 164.108 11.8922 130.033 11.8922 88.0002C11.7726 46.0863 45.6533 12.0119 87.5668 11.8923C87.7112 11.8918 87.8557 11.8918 88.0001 11.8923Z" fill="#FCAC0D" fill-opacity="0.4"/>
<path d="M87.9998 23.784C123.465 23.784 152.216 52.5048 152.216 87.9334C152.216 123.362 123.465 152.083 87.9998 152.083C52.5343 152.083 23.7837 123.362 23.7837 87.9334C23.6828 52.6052 52.2696 23.8848 87.6342 23.784C87.7561 23.7836 87.8779 23.7836 87.9998 23.784Z" fill="#FCAC0D"/>
<path d="M88.4299 122.122C69.822 122.122 54.7383 107.038 54.7383 88.43C54.7383 69.8221 69.822 54.7383 88.4299 54.7383C107.038 54.7383 122.122 69.8221 122.122 88.43C122.122 107.038 107.038 122.122 88.4299 122.122ZM88.4299 115.383C95.5784 115.383 102.434 112.544 107.489 107.489C112.544 102.434 115.383 95.5785 115.383 88.43C115.383 81.2815 112.544 74.4258 107.489 69.3711C102.434 64.3164 95.5784 61.4767 88.4299 61.4767C81.2815 61.4767 74.4258 64.3164 69.3711 69.3711C64.3163 74.4258 61.4766 81.2815 61.4766 88.43C61.4766 95.5785 64.3163 102.434 69.3711 107.489C74.4258 112.544 81.2815 115.383 88.4299 115.383ZM85.0608 71.5842H91.7991V78.3225H85.0608V71.5842ZM85.0608 85.0608H91.7991V105.276H85.0608V85.0608Z" fill="black"/>
</svg>
