<svg width="9" height="10" viewBox="0 0 9 10" fill="none" xmlns="http://www.w3.org/2000/svg">
<path d="M7.75 9.5C7.55109 9.5 7.36032 9.42098 7.21967 9.28033C7.07902 9.13968 7 8.94891 7 8.75L7 1.25C7 1.05109 7.07902 0.860322 7.21967 0.719669C7.36032 0.579017 7.55109 0.5 7.75 0.5C7.94891 0.5 8.13968 0.579017 8.28033 0.719669C8.42098 0.860322 8.5 1.05109 8.5 1.25L8.5 8.75C8.5 8.94891 8.42098 9.13968 8.28033 9.28033C8.13968 9.42098 7.94891 9.5 7.75 9.5ZM6.19075 4.694C6.23966 4.72865 6.27955 4.77451 6.30708 4.82775C6.33461 4.881 6.34898 4.94006 6.34898 5C6.34898 5.05994 6.33461 5.119 6.30708 5.17224C6.27955 5.22549 6.23966 5.27135 6.19075 5.306L0.841 9.083C0.78483 9.12258 0.718864 9.14596 0.650306 9.1506C0.581748 9.15524 0.513235 9.14095 0.452246 9.10929C0.391257 9.07764 0.340138 9.02983 0.304472 8.9711C0.268807 8.91237 0.249962 8.84496 0.25 8.77625L0.250001 1.22375C0.249963 1.15504 0.268807 1.08763 0.304473 1.0289C0.340139 0.970165 0.391258 0.92236 0.452246 0.890704C0.513235 0.85905 0.581749 0.84476 0.650307 0.849397C0.718864 0.854035 0.78483 0.87742 0.841001 0.916999L6.19075 4.694Z" fill="black"/>
</svg>
