<svg aria-hidden="true" style="position: absolute; width: 0; height: 0; overflow: hidden;" version="1.1"
    xmlns="http://www.w3.org/2000/svg" xmlns:xlink="http://www.w3.org/1999/xlink">
    <defs>
        <symbol id="icon-arr-left" viewBox="0 0 32 32">
            <path
                d="M7.656 14.001h24.344v4h-24.344l10.728 10.728-2.828 2.828-15.556-15.556 15.556-15.556 2.828 2.828-10.728 10.728z">
            </path>
        </symbol>
        <symbol id="icon-calendar" viewBox="0 0 32 32">
            <path
                d="M24 3.2h6.4c0.424 0 0.831 0.169 1.131 0.469s0.469 0.707 0.469 1.131v25.6c0 0.424-0.169 0.831-0.469 1.131s-0.707 0.469-1.131 0.469h-28.8c-0.424 0-0.831-0.169-1.131-0.469s-0.469-0.707-0.469-1.131v-25.6c0-0.424 0.169-0.831 0.469-1.131s0.707-0.469 1.131-0.469h6.4v-3.2h3.2v3.2h9.6v-3.2h3.2v3.2zM20.8 6.4h-9.6v3.2h-3.2v-3.2h-4.8v6.4h25.6v-6.4h-4.8v3.2h-3.2v-3.2zM28.8 16h-25.6v12.8h25.6v-12.8zM6.4 20.8h3.2v3.2h-3.2v-3.2zM12.8 20.8h12.8v3.2h-12.8v-3.2z">
            </path>
        </symbol>
        <symbol id="icon-coin-dollar" viewBox="0 0 32 32">
            <path
                d="M18.286 0.762c2.788-0.001 5.493 0.953 7.663 2.705s3.673 4.194 4.26 6.92c0.587 2.726 0.221 5.571-1.036 8.060s-3.329 4.472-5.871 5.618c-0.813 1.796-2.049 3.369-3.603 4.583s-3.379 2.033-5.318 2.386c-1.94 0.354-3.936 0.231-5.818-0.356s-3.594-1.623-4.988-3.017c-1.394-1.394-2.429-3.106-3.017-4.988s-0.71-3.879-0.356-5.818c0.354-1.94 1.172-3.765 2.386-5.319s2.786-2.79 4.583-3.603c0.966-2.138 2.529-3.952 4.5-5.224s4.268-1.949 6.614-1.948zM12.19 9.905c-1.201 0-2.39 0.236-3.499 0.696s-2.117 1.133-2.966 1.982c-0.849 0.849-1.522 1.857-1.982 2.966s-0.696 2.298-0.696 3.499 0.236 2.39 0.696 3.499c0.459 1.109 1.133 2.117 1.982 2.966s1.857 1.522 2.966 1.982c1.109 0.459 2.298 0.696 3.499 0.696 2.425 0 4.75-0.963 6.465-2.678s2.678-4.040 2.678-6.465-0.963-4.75-2.678-6.465c-1.715-1.715-4.040-2.678-6.465-2.678zM13.714 11.429v1.524h3.048v3.048h-6.095c-0.19-0-0.374 0.071-0.515 0.199s-0.228 0.305-0.245 0.494c-0.017 0.19 0.037 0.379 0.153 0.53s0.283 0.254 0.471 0.288l0.137 0.012h3.048c1.010 0 1.979 0.401 2.694 1.116s1.116 1.683 1.116 2.694-0.401 1.979-1.116 2.694c-0.714 0.714-1.683 1.116-2.694 1.116v1.524h-3.048v-1.524h-3.048v-3.048h6.095c0.19 0 0.374-0.071 0.515-0.199s0.228-0.305 0.245-0.494c0.017-0.19-0.037-0.379-0.153-0.53s-0.283-0.254-0.471-0.288l-0.137-0.012h-3.048c-1.010 0-1.979-0.401-2.694-1.116s-1.116-1.683-1.116-2.694c0-1.010 0.401-1.979 1.116-2.694s1.683-1.116 2.694-1.116v-1.524h3.048zM18.286 3.81c-1.291-0.002-2.568 0.271-3.746 0.8s-2.23 1.302-3.087 2.268c1.722-0.105 3.447 0.158 5.061 0.769s3.079 1.559 4.299 2.779c1.22 1.22 2.167 2.685 2.779 4.299s0.874 3.338 0.769 5.061c1.385-1.232 2.364-2.856 2.805-4.656s0.325-3.693-0.334-5.426-1.829-3.224-3.355-4.277c-1.526-1.053-3.336-1.616-5.19-1.617z">
            </path>
        </symbol>
        <symbol id="icon-Crown" viewBox="0 0 32 32">
            <path
                d="M2.618 7.563l6.109 4.073 6.089-8.524c0.135-0.189 0.312-0.342 0.518-0.448s0.434-0.161 0.666-0.161c0.232 0 0.46 0.055 0.666 0.161s0.384 0.26 0.518 0.448l6.089 8.524 6.109-4.073c0.231-0.154 0.502-0.238 0.779-0.243s0.551 0.069 0.788 0.215c0.237 0.145 0.427 0.355 0.548 0.605s0.168 0.529 0.136 0.805l-2.39 20.316c-0.042 0.354-0.212 0.68-0.478 0.917s-0.61 0.368-0.966 0.368h-23.596c-0.356 0-0.7-0.131-0.966-0.368s-0.436-0.563-0.478-0.917l-2.39-20.317c-0.032-0.276 0.015-0.555 0.136-0.804s0.311-0.459 0.548-0.605c0.237-0.145 0.51-0.22 0.787-0.214s0.548 0.089 0.779 0.243zM16 21.818c0.771 0 1.511-0.306 2.057-0.852s0.852-1.286 0.852-2.057c0-0.771-0.306-1.511-0.852-2.057s-1.286-0.852-2.057-0.852-1.511 0.307-2.057 0.852c-0.546 0.546-0.852 1.286-0.852 2.057s0.306 1.512 0.852 2.057c0.546 0.545 1.286 0.852 2.057 0.852z">
            </path>
        </symbol>
        <symbol id="icon-Dashboard" viewBox="0 0 32 32">
            <path
                d="M25.333 28h-18.667c-0.354 0-0.693-0.14-0.943-0.391s-0.391-0.589-0.391-0.943v-12h-4l13.769-12.517c0.245-0.223 0.565-0.347 0.897-0.347s0.652 0.124 0.897 0.347l13.769 12.517h-4v12c0 0.354-0.141 0.693-0.391 0.943s-0.589 0.391-0.943 0.391zM8 25.333h16v-13.124l-8-7.272-8 7.272v13.124zM10.667 20h10.667v2.667h-10.667v-2.667z">
            </path>
        </symbol>
        <symbol id="icon-delete" viewBox="0 0 32 32">
            <path
                d="M4.153 10.386h23.273v18.909c0 0.386-0.153 0.756-0.426 1.029s-0.643 0.426-1.029 0.426h-20.364c-0.386 0-0.756-0.153-1.029-0.426s-0.426-0.643-0.426-1.029v-18.909zM7.063 13.295v14.545h17.455v-14.545h-17.455zM11.426 16.205h2.909v8.727h-2.909v-8.727zM17.244 16.205h2.909v8.727h-2.909v-8.727zM8.517 6.023v-2.909c0-0.386 0.153-0.756 0.426-1.028s0.643-0.426 1.028-0.426h11.636c0.386 0 0.756 0.153 1.029 0.426s0.426 0.643 0.426 1.029v2.909h7.273v2.909h-29.091v-2.909h7.273zM11.426 4.568v1.455h8.727v-1.455h-8.727z">
            </path>
        </symbol>
        <symbol id="icon-edit-pen" viewBox="0 0 32 32">
            <path
                d="M9.657 24h-5.657v-5.657l15.247-15.247c0.25-0.25 0.589-0.39 0.943-0.39s0.693 0.14 0.943 0.39l3.772 3.772c0.25 0.25 0.39 0.589 0.39 0.943s-0.14 0.693-0.39 0.943l-15.247 15.247zM4 26.666h24v2.666h-24v-2.666z">
            </path>
        </symbol>
        <symbol id="icon-fb" viewBox="0 0 32 32">
            <path
                d="M22.048 32v-12.384h4.148l0.62-4.814h-4.768v-3.072c0-1.394 0.388-2.345 2.386-2.345h2.549v-4.306c-1.234-0.131-2.474-0.194-3.716-0.19-3.675 0-6.19 2.244-6.19 6.364v3.548h-4.156v4.814h4.156v12.384h-15.3c-0.472 0-0.924-0.187-1.257-0.521s-0.521-0.786-0.521-1.257v-28.444c0-0.472 0.187-0.924 0.521-1.257s0.786-0.521 1.257-0.521h28.444c0.471 0 0.924 0.187 1.257 0.521s0.521 0.786 0.521 1.257v28.444c0 0.471-0.187 0.924-0.521 1.257s-0.786 0.521-1.257 0.521h-8.174z">
            </path>
        </symbol>
        <symbol id="icon-Graph" viewBox="0 0 32 32">
            <path
                d="M3.368 0.842v26.947h26.947v3.368h-30.316v-30.316h3.368zM29.125 6.388l2.381 2.381-9.612 9.612-5.053-5.051-7.23 7.229-2.381-2.381 9.612-9.612 5.053 5.051 7.23-7.229z">
            </path>
        </symbol>
        <symbol id="icon-info-circle" viewBox="0 0 32 32">
            <path
                d="M16 31.385c-8.497 0-15.385-6.888-15.385-15.385s6.888-15.385 15.385-15.385c8.497 0 15.385 6.888 15.385 15.385s-6.888 15.385-15.385 15.385zM16 28.308c3.264 0 6.395-1.297 8.703-3.605s3.605-5.439 3.605-8.703-1.297-6.395-3.605-8.703c-2.308-2.308-5.439-3.605-8.703-3.605s-6.395 1.297-8.703 3.605c-2.308 2.308-3.605 5.439-3.605 8.703s1.297 6.395 3.605 8.703c2.308 2.308 5.439 3.605 8.703 3.605zM14.462 8.308h3.077v3.077h-3.077v-3.077zM14.462 14.462h3.077v9.231h-3.077v-9.231z">
            </path>
        </symbol>
        <symbol id="icon-insta" viewBox="0 0 32 32">
            <path
                d="M16 0c4.347 0 4.89 0.016 6.595 0.096 1.704 0.080 2.864 0.347 3.885 0.744 1.056 0.406 1.946 0.957 2.835 1.845 0.814 0.8 1.443 1.767 1.845 2.835 0.395 1.019 0.664 2.181 0.744 3.885 0.075 1.706 0.096 2.248 0.096 6.595s-0.016 4.89-0.096 6.595c-0.080 1.704-0.349 2.864-0.744 3.885-0.4 1.068-1.030 2.036-1.845 2.835-0.8 0.813-1.768 1.443-2.835 1.845-1.019 0.395-2.181 0.664-3.885 0.744-1.706 0.075-2.248 0.096-6.595 0.096s-4.89-0.016-6.595-0.096c-1.704-0.080-2.864-0.349-3.885-0.744-1.068-0.401-2.036-1.031-2.835-1.845-0.814-0.8-1.443-1.767-1.845-2.835-0.397-1.019-0.664-2.181-0.744-3.885-0.075-1.706-0.096-2.248-0.096-6.595s0.016-4.89 0.096-6.595c0.080-1.706 0.347-2.864 0.744-3.885 0.4-1.069 1.030-2.036 1.845-2.835 0.799-0.814 1.767-1.444 2.835-1.845 1.021-0.397 2.179-0.664 3.885-0.744 1.706-0.075 2.248-0.096 6.595-0.096zM16 8c-2.122 0-4.157 0.843-5.657 2.343s-2.343 3.535-2.343 5.657c0 2.122 0.843 4.157 2.343 5.657s3.535 2.343 5.657 2.343c2.122 0 4.157-0.843 5.657-2.343s2.343-3.535 2.343-5.657c0-2.122-0.843-4.157-2.343-5.657s-3.535-2.343-5.657-2.343zM26.4 7.6c0-0.53-0.211-1.039-0.586-1.414s-0.884-0.586-1.414-0.586c-0.53 0-1.039 0.211-1.414 0.586s-0.586 0.884-0.586 1.414c0 0.53 0.211 1.039 0.586 1.414s0.884 0.586 1.414 0.586c0.53 0 1.039-0.211 1.414-0.586s0.586-0.884 0.586-1.414zM16 11.2c1.273 0 2.494 0.506 3.394 1.406s1.406 2.121 1.406 3.394c0 1.273-0.506 2.494-1.406 3.394s-2.121 1.406-3.394 1.406c-1.273 0-2.494-0.506-3.394-1.406s-1.406-2.121-1.406-3.394c0-1.273 0.506-2.494 1.406-3.394s2.121-1.406 3.394-1.406z">
            </path>
        </symbol>
        <symbol id="icon-Kennis-Music-Festival-SVG" viewBox="0 0 32 32">
            <path
                d="M1.804 15.367h0.703l-1.142-1.443 1.079-1.16h-0.669l-1.153 1.216v-1.216h-0.599v2.603h0.599v-0.658l0.35-0.364 0.833 1.023zM3.374 14.883v-0.602h1.209v-0.469h-1.209v-0.565h1.369v-0.483h-1.967v2.603h2.016v-0.483h-1.417zM7.063 12.763v1.581l-1.294-1.581h-0.498v2.603h0.595v-1.581l1.298 1.581h0.495v-2.603h-0.595zM10.067 12.763v1.581l-1.294-1.581h-0.498v2.603h0.595v-1.581l1.298 1.581h0.495v-2.603h-0.595zM11.278 15.367h0.602v-2.603h-0.602v2.603zM13.353 15.411c0.744 0 1.105-0.372 1.105-0.807 0-0.956-1.514-0.625-1.514-1.105 0-0.164 0.138-0.298 0.495-0.298 0.231 0 0.48 0.067 0.722 0.205l0.186-0.457c-0.242-0.152-0.576-0.231-0.904-0.231-0.74 0-1.097 0.368-1.097 0.811 0 0.967 1.514 0.632 1.514 1.119 0 0.16-0.145 0.279-0.502 0.279-0.312 0-0.64-0.112-0.859-0.271l-0.205 0.454c0.231 0.178 0.647 0.301 1.060 0.301zM2.957 19.208l-0.007-2.603h-0.495l-0.96 1.618-0.974-1.618h-0.498v2.603h0.565v-1.529l0.762 1.253h0.272l0.766-1.287 0.004 1.562h0.565zM4.731 19.253c0.74 0 1.179-0.424 1.179-1.19v-1.458h-0.595v1.436c0 0.495-0.212 0.699-0.58 0.699-0.364 0-0.58-0.205-0.58-0.699v-1.436h-0.602v1.458c0 0.766 0.439 1.19 1.179 1.19zM7.361 19.253c0.744 0 1.105-0.372 1.105-0.807 0-0.956-1.514-0.625-1.514-1.105 0-0.164 0.138-0.298 0.495-0.298 0.231 0 0.48 0.067 0.721 0.205l0.186-0.457c-0.242-0.152-0.576-0.231-0.904-0.231-0.74 0-1.097 0.368-1.097 0.811 0 0.967 1.514 0.632 1.514 1.119 0 0.16-0.145 0.279-0.502 0.279-0.312 0-0.64-0.112-0.859-0.271l-0.205 0.454c0.231 0.178 0.647 0.301 1.060 0.301zM8.877 19.208h0.602v-2.603h-0.602v2.603zM11.343 19.253c0.454 0 0.829-0.164 1.075-0.465l-0.387-0.357c-0.175 0.205-0.394 0.309-0.655 0.309-0.487 0-0.833-0.342-0.833-0.833s0.346-0.833 0.833-0.833c0.26 0 0.48 0.104 0.655 0.305l0.387-0.357c-0.245-0.298-0.621-0.461-1.071-0.461-0.811 0-1.413 0.562-1.413 1.346s0.602 1.346 1.409 1.346zM15.846 17.088v-0.483h-1.967v2.603h0.602v-0.948h1.205v-0.483h-1.205v-0.688h1.365zM16.852 18.725v-0.602h1.209v-0.469h-1.209v-0.565h1.369v-0.483h-1.967v2.603h2.016v-0.483h-1.417zM19.604 19.253c0.744 0 1.105-0.372 1.105-0.807 0-0.956-1.514-0.625-1.514-1.105 0-0.164 0.138-0.298 0.495-0.298 0.231 0 0.48 0.067 0.721 0.205l0.186-0.457c-0.242-0.152-0.576-0.231-0.904-0.231-0.74 0-1.097 0.368-1.097 0.811 0 0.967 1.514 0.632 1.514 1.119 0 0.16-0.145 0.279-0.502 0.279-0.312 0-0.64-0.112-0.859-0.271l-0.205 0.454c0.231 0.178 0.647 0.301 1.060 0.301zM21.623 19.208h0.602v-2.112h0.833v-0.491h-2.269v0.491h0.833v2.112zM23.383 19.208h0.602v-2.603h-0.602v2.603zM26.493 16.605l-0.803 1.86-0.792-1.86h-0.651l1.123 2.603h0.595l1.127-2.603h-0.599zM29.167 19.208h0.632l-1.164-2.603h-0.595l-1.16 2.603h0.617l0.231-0.558h1.209l0.231 0.558zM27.921 18.193l0.413-0.997 0.413 0.997h-0.826zM30.069 19.208h1.908v-0.491h-1.305v-2.112h-0.602v2.603z">
            </path>
        </symbol>
        <symbol id="icon-kudibar-logo" viewBox="0 0 32 32">
            <path
                d="M0.054 16.637c0.040-0.060 0.106-0.116 0.164-0.166 0.128-0.111 0.257-0.226 0.381-0.342 0.213-0.189 0.465-0.379 0.642-0.605 0.186-0.148 0.377-0.439 1.267-0.439 0.093 0.328 0.235 0.781 0.939 1.544 0 0-0.040 0.018-0.044 0.023-0.040 0.018-0.084 0.037-0.128 0.051-0.155 0.055-0.315 0.097-0.478 0.125-0.239 0.037-0.483 0.042-0.722 0.018-0.097-0.009-0.195-0.023-0.288-0.046-0.049-0.009-0.102-0.023-0.151-0.037-0.035-0.009-0.066-0.014-0.097-0.028-0.035-0.018-0.062-0.046-0.097-0.065-0.058-0.028-0.115-0.023-0.168 0.018-0.071 0.051-0.106 0.060-0.164 0.005s-0.093 0.088-0.106 0.092c-0.013 0.005-0.040 0.037-0.089-0.014s-0.168-0.037-0.173 0.051c-0.022 0.069-0.164 0.046-0.191 0.014s-0.097-0.051-0.159-0.005c-0.053 0.037-0.102 0.097-0.111 0.162-0.009 0.042 0 0.088 0.013 0.129 0.009 0.028 0.022 0.051 0.040 0.074 0.009 0.014 0.018 0.028 0.031 0.042 0.009 0.009 0.013 0.023 0.027 0.028 0.004 0 0.004 0.005 0.009 0.005 0.053 0.014 0.124 0.023 0.173-0.005 0 0 0.093-0.051 0.146 0.018 0.049 0.065 0.168 0.079 0.222 0 0.049-0.079 0.155 0.005 0.155 0.005s0.053 0.065 0.142 0.005c0.018-0.079 0.137-0.079 0.186-0.065s0.097-0.069 0.097-0.069c0 0 0.062-0.028 0.12 0.032 0.093 0 0.12-0.055 0.151-0.106s0.137-0.005 0.146 0.055c0.044 0.046 0.146 0.018 0.16-0.023s0.031-0.097 0.12-0.079 0.071 0.092 0.142 0.065c0.071-0.028 0.075-0.097 0.102-0.106s0.080-0.018 0.12 0.042c0.044 0.055 0.128 0.032 0.146-0.005s0.035-0.111 0.106-0.106c0.071 0.005 0.031 0.051 0.084 0.083 0.053 0.028 0.106 0.023 0.168-0.074s0.168-0.037 0.168-0.037c0 0 0.115 0.018 0.159-0.069 0.049-0.088 0.164-0.134 0.248-0.069s0.199 0.222 0.563 0.365c0 0-0.292 0.864-1.577 1.114s-2.375-0.661-2.472-0.809c-0.058-0.088-0.058-0.213-0.044-0.314 0.004-0.037 0.018-0.069 0.018-0.106-0.004 0-0.004 0-0.009 0-0.022-0.014-0.044-0.032-0.062-0.051-0.013-0.014-0.027-0.028-0.040-0.046-0.031-0.037-0.040-0.097-0.035-0.143 0.009-0.051 0.027-0.097 0.053-0.134z">
            </path>
            <path
                d="M6.252 15.463c-0.576-1.899-1.976-1.807-2.255-1.793-0.284 0.018-1.161-0.032-1.378 0-0.221 0.032-0.235 0.439-0.235 0.439s-0.168 0.162-0.195 0.231c-0.071 0.176-0.009 0.508-0.009 0.508 0.022 0.189 0.12 0.37 0.204 0.536 0.102 0.199 0.221 0.388 0.341 0.578 0.133 0.208 0.248 0.407 0.434 0.573 0.142 0.129 0.297 0.24 0.461 0.337 0.359 0.213 0.758 0.356 1.174 0.365 0.239 0.005 0.483-0.009 0.709-0.079 0.124-0.037 0.244-0.092 0.341-0.18 0.040-0.037 0.080-0.079 0.102-0.129 0.018-0.046 0.004-0.097 0.004-0.143 0-0.051 0-0.102 0-0.152 0-0.018 0-0.074 0.018-0.088 0.022-0.018 0.159-0.092 0.235-0.134 0.031-0.018 0.053-0.051 0.062-0.088 0.013-0.139 0.049-0.467-0.013-0.781zM5.667 16.443c-0.058 0-0.128 0.005-0.155-0.032s-0.102-0.042-0.155-0.005c-0.080 0.023-0.151-0.083-0.151-0.083s-0.018-0.042-0.128-0.037c-0.111 0.005-0.155-0.032-0.195-0.097-0.035-0.065-0.164-0.028-0.186-0.037s-0.093-0.055-0.128-0.139c-0.035-0.083-0.173-0.055-0.199-0.065s-0.027-0.148-0.12-0.171-0.168 0.005-0.191-0.042c-0.022-0.051-0.004-0.189-0.075-0.185-0.075 0.005-0.186-0.028-0.226-0.088-0.035-0.060-0.004-0.097-0.084-0.116s-0.155-0.060-0.173-0.092-0.084-0.055-0.084-0.055l-0.151-0.018c0 0-0.053-0.009-0.084-0.092s-0.151-0.055-0.186-0.074c-0.035-0.018-0.040-0.143-0.133-0.162s-0.182-0.097-0.195-0.162c-0.013-0.065-0.031-0.111-0.12-0.157-0.084-0.046-0.053-0.042-0.071-0.097 0 0-0.111-0.079-0.049-0.194 0.062-0.12 0.173-0.129 0.23-0.129s0.146 0.018 0.177 0.079c0.031 0.060 0.031 0.134 0.155 0.143 0.124 0.005 0.173 0.111 0.173 0.111l0.151 0.060c0 0-0.027 0.009 0.062 0.083 0.089 0.069 0.164 0.055 0.164 0.055s0.062 0.023 0.097 0.143c0.035 0.12 0.82 1.151 1.302 1.299 0.478 0.148 0.678 0.217 0.713 0.263 0.049 0.028 0.071 0.092 0.013 0.092z">
            </path>
            <path
                d="M11.293 14.072v-0.481h-0.080c-0.168 0-0.341 0-0.514 0-0.168 0-0.341 0-0.487 0h-0.035v0.143c-0.004 0.342-0.004 0.684-0.009 1.026-0.009 0.453-0.27 0.739-0.704 0.79-0.275 0.032-0.554 0.069-0.868 0.111 0-0.67 0-1.354 0-2.033-0.385 0-0.731 0-1.072 0 0 1.571 0 3.11 0 4.659 0.363 0 0.704 0 1.032 0 0.022-0.032 0.035-0.042 0.035-0.055 0.004-0.291 0.004-0.578 0.013-0.869 0.013-0.467 0.332-0.786 0.784-0.786 0.447 0 0.771 0.323 0.78 0.79 0.004 0.287 0 0.578 0 0.883 0.381 0 0.735 0 1.099 0 0.018-0.786 0.115-1.567-0.54-2.163 0.461-0.587 0.647-1.243 0.567-2.015z">
            </path>
            <path
                d="M18.439 13.702c0 0.171 0 0.319 0 0.462 0 0.8 0.009 1.599-0.004 2.399-0.009 0.416-0.39 0.73-0.824 0.712-0.43-0.018-0.78-0.36-0.762-0.744 0.018-0.397 0.403-0.73 0.842-0.684 0.191 0.018 0.372 0.111 0.594 0.185 0-0.291 0.018-0.582-0.009-0.869-0.009-0.102-0.128-0.254-0.217-0.277-0.727-0.157-1.369 0.028-1.892 0.582-0.576 0.605-0.576 1.544-0.013 2.163 0.784 0.869 2.211 0.878 2.973-0.009 0.191-0.222 0.377-0.541 0.39-0.823 0.049-1.021 0.018-2.047 0.018-3.087-0.368-0.009-0.722-0.009-1.094-0.009z">
            </path>
            <path
                d="M22.706 14.904c-0.058 0.014-0.124 0.111-0.128 0.176-0.013 0.319-0.004 0.638-0.004 0.975 0.173-0.074 0.292-0.152 0.425-0.185 0.346-0.079 0.656 0.009 0.873 0.31 0.173 0.236 0.168 0.499 0.013 0.744-0.182 0.291-0.585 0.421-0.935 0.314-0.359-0.111-0.541-0.347-0.545-0.744-0.004-0.726 0-1.451 0-2.177 0-0.199 0-0.402 0-0.615-0.385 0-0.718 0-1.103 0 0 0.897 0.044 1.756-0.009 2.611-0.080 1.229 0.895 1.955 1.874 1.969 0.97 0.018 1.839-0.666 1.932-1.534 0.146-1.363-1.276-2.163-2.392-1.844z">
            </path>
            <path
                d="M26.985 14.83c-1.090 0.134-1.83 1.081-1.604 2.075 0.213 0.957 1.449 1.645 2.344 1.299 0.066-0.028 0.151-0.125 0.155-0.194 0.018-0.319 0.009-0.638 0.009-0.943-0.221 0.074-0.403 0.166-0.589 0.189-0.359 0.046-0.696-0.185-0.806-0.508-0.106-0.305 0-0.55 0.23-0.735 0.27-0.222 0.58-0.245 0.895-0.102 0.31 0.143 0.443 0.402 0.434 0.758-0.009 0.527-0.004 1.054-0.004 1.59 0.39 0 0.727 0 1.112 0 0-0.495-0.027-0.957 0.004-1.41 0.106-1.451-1.152-2.144-2.18-2.020z">
            </path>
            <path
                d="M14.293 16.489c0.004 0.31-0.133 0.531-0.39 0.679-0.567 0.328-1.201-0.051-1.205-0.726-0.004-0.527 0-1.054 0-1.581-0.394 0-0.731 0-1.108 0 0 0.624-0.013 1.206 0.004 1.784 0.013 0.471 0.226 0.855 0.576 1.155 0.536 0.458 1.152 0.55 1.816 0.416 0.089-0.018 0.177-0.042 0.266-0.037v0.134h1.116c0-0.092 0-0.18 0-0.273 0-1.105 0-2.135 0-3.17-0.372 0-0.713 0-1.081 0 0 0.555-0.004 1.086 0.004 1.618z">
            </path>
            <path
                d="M29.377 16.327c-0.071 0.629-0.013 1.271-0.013 1.927 0.354 0 0.7 0 1.072 0 0-0.536 0.009-1.049-0.004-1.567-0.009-0.374 0.177-0.582 0.465-0.781 0.377-0.259 0.713-0.573 1.103-0.897-1.178-0.495-2.499 0.185-2.623 1.317z">
            </path>
            <path
                d="M19.866 18.255c0.359 0 0.718 0 1.072 0 0-1.146 0-2.274 0-3.397-0.372 0-0.713 0-1.072 0 0 1.137 0 2.255 0 3.397z">
            </path>
            <path
                d="M20.424 13.679c-0.297-0.009-0.567 0.236-0.571 0.522-0.004 0.268 0.239 0.513 0.527 0.531 0.297 0.018 0.572-0.217 0.585-0.499 0.013-0.287-0.244-0.545-0.541-0.555z">
            </path>
        </symbol>
        <symbol id="icon-Livestream-Event" viewBox="0 0 32 32">
            <path
                d="M21.818 4.364c0.386 0 0.756 0.153 1.029 0.426s0.426 0.643 0.426 1.029v6.109l7.583-5.309c0.109-0.076 0.237-0.121 0.37-0.13s0.266 0.019 0.384 0.081 0.217 0.154 0.286 0.268c0.069 0.114 0.105 0.245 0.105 0.378v17.571c0 0.133-0.036 0.264-0.105 0.378s-0.168 0.207-0.286 0.268-0.251 0.089-0.384 0.081c-0.133-0.009-0.261-0.054-0.37-0.13l-7.583-5.309v6.109c0 0.386-0.153 0.756-0.426 1.029s-0.643 0.426-1.029 0.426h-20.364c-0.386 0-0.756-0.153-1.029-0.426s-0.426-0.643-0.426-1.029v-20.364c0-0.386 0.153-0.756 0.426-1.029s0.643-0.426 1.029-0.426h20.364zM20.364 7.273h-17.455v17.455h17.455v-17.455zM9.309 11.388c0.111-0 0.219 0.031 0.313 0.090l6.335 4.032c0.082 0.053 0.15 0.125 0.197 0.211s0.071 0.182 0.071 0.279-0.025 0.194-0.071 0.279c-0.047 0.086-0.115 0.158-0.197 0.211l-6.335 4.033c-0.088 0.056-0.19 0.088-0.295 0.091s-0.208-0.022-0.3-0.072-0.168-0.125-0.221-0.215c-0.053-0.090-0.080-0.193-0.080-0.298v-8.058c0-0.321 0.262-0.582 0.582-0.582v-0.001zM29.091 11.404l-5.818 4.073v1.044l5.818 4.073v-9.19z">
            </path>
        </symbol>
        <symbol id="icon-logout" viewBox="0 0 32 32">
            <path
                d="M4.8 32c-0.424 0-0.831-0.169-1.131-0.469s-0.469-0.707-0.469-1.131v-28.8c0-0.424 0.169-0.831 0.469-1.131s0.707-0.469 1.131-0.469h22.4c0.424 0 0.831 0.169 1.131 0.469s0.469 0.707 0.469 1.131v28.8c0 0.424-0.169 0.831-0.469 1.131s-0.707 0.469-1.131 0.469h-22.4zM20.8 22.4l8-6.4-8-6.4v4.8h-9.6v3.2h9.6v4.8z">
            </path>
        </symbol>
        <symbol id="icon-mark" viewBox="0 0 32 32">
            <path stroke-linejoin="round" stroke-linecap="round" stroke-miterlimit="4" fill="none" stroke-width="4.1481"
                d="M29.692 6.62l-18.826 18.826-8.557-8.557"></path>
        </symbol>
        <symbol id="icon-notification" viewBox="0 0 26 32">
            <path
                d="M21.818 11.636c0-2.315-0.919-4.534-2.556-6.171s-3.856-2.556-6.171-2.556-4.534 0.919-6.171 2.556c-1.637 1.637-2.556 3.857-2.556 6.171v11.636h17.455v-11.636zM24.727 24.243l0.582 0.775c0.081 0.108 0.13 0.236 0.143 0.371s-0.014 0.27-0.074 0.391c-0.060 0.121-0.153 0.222-0.268 0.293s-0.247 0.109-0.382 0.109h-23.273c-0.135 0-0.267-0.038-0.382-0.109s-0.208-0.172-0.268-0.293c-0.060-0.121-0.086-0.256-0.074-0.391s0.061-0.263 0.142-0.371l0.582-0.775v-12.607c0-3.086 1.226-6.046 3.408-8.228s5.142-3.408 8.228-3.408c3.086 0 6.046 1.226 8.228 3.408s3.408 5.142 3.408 8.228v12.607zM9.455 27.636h7.273c0 0.964-0.383 1.889-1.065 2.571s-1.607 1.065-2.571 1.065-1.889-0.383-2.571-1.065c-0.682-0.682-1.065-1.607-1.065-2.571z">
            </path>
        </symbol>
        <symbol id="icon-pause" viewBox="0 0 32 32">
            <path
                d="M16 31c-8.284 0-15-6.715-15-15s6.715-15 15-15c8.285 0 15 6.715 15 15s-6.715 15-15 15zM11.5 11.5v9h3v-9h-3zM17.5 11.5v9h3v-9h-3z">
            </path>
        </symbol>
        <symbol id="icon-play" viewBox="0 0 32 32">
            <path
                d="M16 32c-8.837 0-16-7.163-16-16s7.163-16 16-16c8.837 0 16 7.163 16 16s-7.163 16-16 16zM16 28.8c3.395 0 6.651-1.349 9.051-3.749s3.749-5.656 3.749-9.051c0-3.395-1.349-6.651-3.749-9.051s-5.656-3.749-9.051-3.749c-3.395 0-6.651 1.349-9.051 3.749s-3.749 5.656-3.749 9.051c0 3.395 1.349 6.651 3.749 9.051s5.656 3.749 9.051 3.749zM13.795 10.264l7.806 5.203c0.088 0.058 0.16 0.138 0.21 0.231s0.076 0.197 0.076 0.302c0 0.105-0.026 0.209-0.076 0.302s-0.122 0.172-0.21 0.231l-7.808 5.203c-0.096 0.064-0.208 0.1-0.323 0.106s-0.23-0.020-0.332-0.075c-0.102-0.054-0.187-0.135-0.247-0.234s-0.091-0.212-0.092-0.328v-10.41c0-0.116 0.032-0.229 0.091-0.329s0.145-0.18 0.247-0.235c0.102-0.055 0.217-0.080 0.333-0.075s0.228 0.043 0.324 0.107z">
            </path>
        </symbol>
        <symbol id="icon-Raffle-Tickets" viewBox="0 0 32 32">
            <path
                d="M30.4 1.6c0.424 0 0.831 0.169 1.131 0.469s0.469 0.707 0.469 1.131v8.8c-1.061 0-2.078 0.421-2.828 1.172s-1.172 1.768-1.172 2.828 0.421 2.078 1.172 2.828c0.75 0.75 1.768 1.172 2.828 1.172v8.8c0 0.424-0.169 0.831-0.469 1.131s-0.707 0.469-1.131 0.469h-28.8c-0.424 0-0.831-0.169-1.131-0.469s-0.469-0.707-0.469-1.131v-8.8c1.061 0 2.078-0.421 2.828-1.172s1.172-1.768 1.172-2.828-0.421-2.078-1.172-2.828c-0.75-0.75-1.768-1.172-2.828-1.172v-8.8c0-0.424 0.169-0.831 0.469-1.131s0.707-0.469 1.131-0.469h28.8zM28.8 4.8h-25.6v4.749l0.25 0.13c1.085 0.592 2 1.454 2.656 2.502s1.031 2.247 1.088 3.482l0.006 0.338c0 1.293-0.348 2.563-1.008 3.675s-1.607 2.026-2.742 2.645l-0.25 0.131v4.749h25.6v-4.75l-0.25-0.128c-1.085-0.592-2-1.454-2.656-2.502s-1.031-2.247-1.088-3.482l-0.006-0.338c0-2.726 1.515-5.099 3.75-6.32l0.25-0.133v-4.747z">
            </path>
        </symbol>
        <symbol id="icon-receipt" viewBox="0 0 32 32">
            <path
                d="M26.769 31.385h-21.538c-1.224 0-2.398-0.486-3.264-1.352s-1.352-2.040-1.352-3.264v-24.615c0-0.408 0.162-0.799 0.451-1.088s0.68-0.451 1.088-0.451h21.538c0.408 0 0.799 0.162 1.088 0.451s0.451 0.68 0.451 1.088v18.462h6.154v6.154c0 1.224-0.486 2.398-1.352 3.264s-2.040 1.352-3.264 1.352zM25.231 23.692v3.077c0 0.408 0.162 0.799 0.451 1.088s0.68 0.451 1.088 0.451 0.799-0.162 1.088-0.451c0.289-0.288 0.451-0.68 0.451-1.088v-3.077h-3.077zM22.154 28.308v-24.615h-18.462v23.077c0 0.408 0.162 0.799 0.451 1.088s0.68 0.451 1.088 0.451h16.923zM6.769 8.308h12.308v3.077h-12.308v-3.077zM6.769 14.462h12.308v3.077h-12.308v-3.077zM6.769 20.615h7.692v3.077h-7.692v-3.077z">
            </path>
        </symbol>
        <symbol id="icon-Rewards" viewBox="0 0 32 32">
            <path
                d="M17.455 23.183v2.999h7.273v2.909h-17.455v-2.909h7.273v-2.999c-2.812-0.355-5.398-1.723-7.273-3.849s-2.909-4.863-2.909-7.697v-8.727h23.273v8.727c0 2.834-1.034 5.571-2.909 7.697s-4.461 3.495-7.273 3.849zM7.273 5.818v5.818c0 2.315 0.919 4.534 2.556 6.171s3.857 2.556 6.171 2.556 4.534-0.919 6.171-2.556c1.637-1.637 2.556-3.856 2.556-6.171v-5.818h-17.455zM0 5.818h2.909v5.818h-2.909v-5.818zM29.091 5.818h2.909v5.818h-2.909v-5.818z">
            </path>
        </symbol>
        <symbol id="icon-Settings" viewBox="0 0 32 32">
            <path
                d="M0 16c0-1.384 0.176-2.725 0.506-4.006 0.884 0.046 1.764-0.152 2.542-0.575s1.424-1.051 1.867-1.818c0.443-0.766 0.665-1.64 0.642-2.525s-0.29-1.746-0.772-2.489c1.934-1.903 4.321-3.282 6.936-4.008 0.402 0.79 1.014 1.453 1.769 1.916s1.624 0.708 2.509 0.708c0.886 0 1.754-0.245 2.509-0.708s1.367-1.126 1.769-1.916c2.615 0.726 5.002 2.105 6.936 4.008-0.482 0.743-0.75 1.604-0.773 2.49s0.199 1.76 0.642 2.526 1.089 1.396 1.868 1.818c0.778 0.422 1.659 0.621 2.543 0.574 0.33 1.28 0.506 2.621 0.506 4.005s-0.176 2.725-0.506 4.006c-0.884-0.047-1.764 0.152-2.542 0.574s-1.424 1.051-1.868 1.818c-0.443 0.767-0.665 1.641-0.642 2.526s0.29 1.747 0.772 2.489c-1.934 1.903-4.321 3.282-6.936 4.008-0.402-0.79-1.014-1.453-1.769-1.916s-1.624-0.708-2.509-0.708c-0.886 0-1.754 0.245-2.509 0.708s-1.367 1.126-1.769 1.916c-2.615-0.726-5.002-2.105-6.936-4.008 0.482-0.743 0.75-1.604 0.773-2.49s-0.199-1.76-0.642-2.526c-0.443-0.767-1.090-1.396-1.868-1.818s-1.659-0.621-2.543-0.574c-0.328-1.278-0.504-2.619-0.504-4.005zM7.686 20.8c1.008 1.746 1.296 3.754 0.902 5.638 0.653 0.464 1.347 0.866 2.075 1.2 1.467-1.314 3.367-2.040 5.336-2.038 2.016 0 3.901 0.754 5.336 2.038 0.728-0.334 1.422-0.736 2.075-1.2-0.404-1.926-0.083-3.934 0.902-5.638 0.983-1.705 2.562-2.987 4.432-3.6 0.074-0.798 0.074-1.602 0-2.4-1.871-0.613-3.45-1.895-4.434-3.6-0.985-1.704-1.307-3.712-0.902-5.638-0.653-0.464-1.347-0.866-2.075-1.2-1.466 1.313-3.366 2.039-5.334 2.038-1.969 0.001-3.869-0.725-5.336-2.038-0.728 0.334-1.423 0.736-2.075 1.2 0.404 1.926 0.083 3.934-0.902 5.638-0.983 1.705-2.562 2.987-4.432 3.6-0.074 0.798-0.074 1.602 0 2.4 1.871 0.613 3.45 1.895 4.434 3.6h-0.002zM16 20.8c-1.273 0-2.494-0.506-3.394-1.406s-1.406-2.121-1.406-3.394c0-1.273 0.506-2.494 1.406-3.394s2.121-1.406 3.394-1.406c1.273 0 2.494 0.506 3.394 1.406s1.406 2.121 1.406 3.394c0 1.273-0.506 2.494-1.406 3.394s-2.121 1.406-3.394 1.406zM16 17.6c0.424 0 0.831-0.169 1.131-0.469s0.469-0.707 0.469-1.131c0-0.424-0.169-0.831-0.469-1.131s-0.707-0.469-1.131-0.469c-0.424 0-0.831 0.169-1.131 0.469s-0.469 0.707-0.469 1.131c0 0.424 0.169 0.831 0.469 1.131s0.707 0.469 1.131 0.469z">
            </path>
        </symbol>
        <symbol id="icon-sidebar-wallet" viewBox="0 0 32 32">
            <path
                d="M25.6 8h4.8c0.424 0 0.831 0.169 1.131 0.469s0.469 0.707 0.469 1.131v19.2c0 0.424-0.169 0.831-0.469 1.131s-0.707 0.469-1.131 0.469h-28.8c-0.424 0-0.831-0.169-1.131-0.469s-0.469-0.707-0.469-1.131v-25.6c0-0.424 0.169-0.831 0.469-1.131s0.707-0.469 1.131-0.469h24v6.4zM3.2 11.2v16h25.6v-16h-25.6zM3.2 4.8v3.2h19.2v-3.2h-19.2zM20.8 17.6h4.8v3.2h-4.8v-3.2z">
            </path>
        </symbol>
        <symbol id="icon-smiley" viewBox="0 0 32 32">
            <path
                d="M16 32c-8.837 0-16-7.163-16-16s7.163-16 16-16c8.837 0 16 7.163 16 16s-7.163 16-16 16zM8 17.6c0 2.122 0.843 4.157 2.343 5.657s3.535 2.343 5.657 2.343c2.122 0 4.157-0.843 5.657-2.343s2.343-3.535 2.343-5.657h-3.2c0 1.273-0.506 2.494-1.406 3.394s-2.121 1.406-3.394 1.406c-1.273 0-2.494-0.506-3.394-1.406s-1.406-2.121-1.406-3.394h-3.2zM9.6 14.4c0.636 0 1.247-0.253 1.697-0.703s0.703-1.061 0.703-1.697c0-0.636-0.253-1.247-0.703-1.697s-1.061-0.703-1.697-0.703c-0.636 0-1.247 0.253-1.697 0.703s-0.703 1.061-0.703 1.697c0 0.636 0.253 1.247 0.703 1.697s1.061 0.703 1.697 0.703zM22.4 14.4c0.636 0 1.247-0.253 1.697-0.703s0.703-1.061 0.703-1.697c0-0.636-0.253-1.247-0.703-1.697s-1.061-0.703-1.697-0.703c-0.636 0-1.247 0.253-1.697 0.703s-0.703 1.061-0.703 1.697c0 0.636 0.253 1.247 0.703 1.697s1.061 0.703 1.697 0.703z">
            </path>
        </symbol>
        <symbol id="icon-Transactions" viewBox="0 0 32 32">
            <path
                d="M13.091 0.79c0.48-0.042 0.964-0.063 1.455-0.063 9.238 0 16.727 7.489 16.727 16.727 0 0.49-0.020 0.975-0.063 1.455h-2.191c-0.73 7.35-6.932 13.091-14.474 13.091-8.033 0-14.545-6.512-14.545-14.545 0-7.542 5.741-13.744 13.091-14.473v-2.192zM13.091 18.909v-13.001c-2.934 0.373-5.616 1.85-7.501 4.13s-2.83 5.192-2.645 8.144c0.185 2.952 1.488 5.723 3.642 7.749s5 3.156 7.958 3.16c2.834 0 5.571-1.034 7.697-2.909s3.495-4.461 3.849-7.273h-13.001zM28.288 16c-0.334-3.145-1.735-6.080-3.971-8.317s-5.172-3.638-8.317-3.971v12.288h12.288z">
            </path>
        </symbol>
        <symbol id="icon-twt" viewBox="0 0 32 32">
            <path
                d="M30.781 6.772c-1.111 0.491-2.288 0.814-3.494 0.957 1.271-0.76 2.222-1.956 2.676-3.366-1.193 0.71-2.5 1.207-3.863 1.476-0.916-0.98-2.129-1.629-3.452-1.848s-2.681 0.006-3.863 0.638c-1.182 0.633-2.122 1.638-2.674 2.86s-0.684 2.592-0.377 3.897c-2.419-0.121-4.785-0.75-6.945-1.845s-4.066-2.632-5.593-4.511c-0.541 0.929-0.825 1.984-0.823 3.059 0 2.109 1.073 3.972 2.705 5.063-0.966-0.030-1.91-0.291-2.755-0.761v0.076c0 1.405 0.486 2.766 1.376 3.853s2.127 1.833 3.504 2.112c-0.897 0.243-1.837 0.279-2.749 0.105 0.388 1.209 1.145 2.266 2.164 3.024s2.249 1.178 3.519 1.201c-1.262 0.991-2.707 1.724-4.252 2.156s-3.16 0.556-4.753 0.363c2.781 1.788 6.018 2.738 9.324 2.735 11.19 0 17.309-9.27 17.309-17.309 0-0.262-0.007-0.527-0.019-0.785 1.191-0.861 2.219-1.927 3.036-3.149l-0.001-0.001z">
            </path>
        </symbol>
        <symbol id="icon-Users" viewBox="0 0 32 32">
            <path
                d="M28.19 32h-24.381v-3.048c0-2.021 0.803-3.959 2.232-5.387s3.367-2.232 5.387-2.232h9.143c2.021 0 3.959 0.803 5.387 2.232s2.232 3.367 2.232 5.387v3.048zM16 18.286c-1.201 0-2.39-0.236-3.499-0.696s-2.117-1.133-2.966-1.982c-0.849-0.849-1.522-1.857-1.982-2.966s-0.696-2.298-0.696-3.499c0-1.201 0.236-2.39 0.696-3.499s1.133-2.117 1.982-2.966c0.849-0.849 1.857-1.522 2.966-1.982s2.298-0.696 3.499-0.696c2.425 0 4.75 0.963 6.465 2.678s2.678 4.040 2.678 6.465-0.963 4.75-2.678 6.465c-1.715 1.715-4.040 2.678-6.465 2.678z">
            </path>
        </symbol>
        <symbol id="icon-view-password" viewBox="0 0 32 32">
            <path
                d="M16 4.287c7.189 0 13.171 5.173 14.425 12-1.253 6.827-7.236 12-14.425 12s-13.171-5.173-14.425-12c1.253-6.827 7.236-12 14.425-12zM16 25.62c2.719-0.001 5.358-0.924 7.484-2.62s3.613-4.062 4.219-6.713c-0.608-2.649-2.096-5.013-4.222-6.707s-4.763-2.615-7.481-2.615-5.355 0.922-7.481 2.615c-2.126 1.693-3.614 4.058-4.222 6.707 0.605 2.651 2.093 5.018 4.219 6.713s4.764 2.619 7.484 2.62zM16 22.287c-1.591 0-3.117-0.632-4.243-1.757s-1.757-2.651-1.757-4.243c0-1.591 0.632-3.117 1.757-4.243s2.651-1.757 4.243-1.757c1.591 0 3.117 0.632 4.243 1.757s1.757 2.651 1.757 4.243-0.632 3.117-1.757 4.243c-1.125 1.125-2.651 1.757-4.243 1.757zM16 19.62c0.884 0 1.732-0.351 2.357-0.976s0.976-1.473 0.976-2.357c0-0.884-0.351-1.732-0.976-2.357s-1.473-0.976-2.357-0.976c-0.884 0-1.732 0.351-2.357 0.976s-0.976 1.473-0.976 2.357c0 0.884 0.351 1.732 0.976 2.357s1.473 0.976 2.357 0.976z">
            </path>
        </symbol>
        <symbol id="icon-Wallet" viewBox="0 0 32 32">
            <path
                d="M1.6 1.6h28.8c0.424 0 0.831 0.169 1.131 0.469s0.469 0.707 0.469 1.131v25.6c0 0.424-0.169 0.831-0.469 1.131s-0.707 0.469-1.131 0.469h-28.8c-0.424 0-0.831-0.169-1.131-0.469s-0.469-0.707-0.469-1.131v-25.6c0-0.424 0.169-0.831 0.469-1.131s0.707-0.469 1.131-0.469zM28.8 14.4h-25.6v12.8h25.6v-12.8zM28.8 11.2v-6.4h-25.6v6.4h25.6zM19.2 20.8h6.4v3.2h-6.4v-3.2z">
            </path>
        </symbol>
        <symbol id="icon-yt" viewBox="0 0 32 32">
            <path
                d="M31.269 7.197c0.731 2.851 0.731 8.803 0.731 8.803s0 5.952-0.731 8.803c-0.406 1.576-1.595 2.816-3.101 3.235-2.734 0.762-12.168 0.762-12.168 0.762s-9.429 0-12.168-0.762c-1.512-0.426-2.699-1.664-3.101-3.235-0.731-2.851-0.731-8.803-0.731-8.803s0-5.952 0.731-8.803c0.406-1.576 1.595-2.816 3.101-3.235 2.739-0.762 12.168-0.762 12.168-0.762s9.434 0 12.168 0.762c1.512 0.426 2.699 1.664 3.101 3.235zM12.8 21.6l9.6-5.6-9.6-5.6v11.2z">
            </path>
        </symbol>
    </defs>
</svg>