<svg aria-hidden="true" style="position: absolute; width: 0; height: 0; overflow: hidden;" version="1.1"
    xmlns="http://www.w3.org/2000/svg" xmlns:xlink="http://www.w3.org/1999/xlink">
    <defs>
        <symbol id="icon-info-circle" viewBox="0 0 32 32">
            <path
                d="M16 31.385c-8.497 0-15.385-6.888-15.385-15.385s6.888-15.385 15.385-15.385c8.497 0 15.385 6.888 15.385 15.385s-6.888 15.385-15.385 15.385zM16 28.308c3.264 0 6.395-1.297 8.703-3.605s3.605-5.439 3.605-8.703-1.297-6.395-3.605-8.703c-2.308-2.308-5.439-3.605-8.703-3.605s-6.395 1.297-8.703 3.605c-2.308 2.308-3.605 5.439-3.605 8.703s1.297 6.395 3.605 8.703c2.308 2.308 5.439 3.605 8.703 3.605zM14.462 8.308h3.077v3.077h-3.077v-3.077zM14.462 14.462h3.077v9.231h-3.077v-9.231z">
            </path>
        </symbol>
        <symbol id="icon-arr-left" viewBox="0 0 32 32">
            <path
                d="M7.656 14.001h24.344v4h-24.344l10.728 10.728-2.828 2.828-15.556-15.556 15.556-15.556 2.828 2.828-10.728 10.728z">
            </path>
        </symbol>
    </defs>
</svg>