<svg width="11" height="11" viewBox="0 0 11 11" fill="none" xmlns="http://www.w3.org/2000/svg">
<path d="M1.42773 3.57031H9.42773V10.0703C9.42773 10.2029 9.37506 10.3301 9.28129 10.4239C9.18752 10.5176 9.06034 10.5703 8.92773 10.5703H1.92773C1.79513 10.5703 1.66795 10.5176 1.57418 10.4239C1.48041 10.3301 1.42773 10.2029 1.42773 10.0703V3.57031ZM2.42773 4.57031V9.57031H8.42773V4.57031H2.42773ZM3.92773 5.57031H4.92773V8.57031H3.92773V5.57031ZM5.92773 5.57031H6.92773V8.57031H5.92773V5.57031ZM2.92773 2.07031V1.07031C2.92773 0.937704 2.98041 0.810527 3.07418 0.716759C3.16795 0.622991 3.29513 0.570313 3.42773 0.570312H7.42773C7.56034 0.570313 7.68752 0.622991 7.78129 0.716759C7.87506 0.810527 7.92773 0.937704 7.92773 1.07031V2.07031H10.4277V3.07031H0.427734V2.07031H2.92773ZM3.92773 1.57031V2.07031H6.92773V1.57031H3.92773Z" fill="#D10000"/>
</svg>
