<svg width="783" height="161" viewBox="0 0 783 161" fill="none" xmlns="http://www.w3.org/2000/svg">
<path d="M44.142 65H61.341L33.404 29.692L59.794 1.3H43.414L15.204 31.057V1.3H0.553V65H15.204V48.893L23.758 39.975L44.142 65ZM82.5653 53.17V38.428H112.14V26.962H82.5653V13.13H116.053V1.3H67.9143V65H117.236V53.17H82.5653ZM172.828 1.3V39.975L141.16 1.3H128.966V65H143.526V26.325L175.285 65H187.388V1.3H172.828ZM246.321 1.3V39.975L214.653 1.3H202.459V65H217.019V26.325L248.778 65H260.881V1.3H246.321ZM275.952 65H290.694V1.3H275.952V65ZM326.742 66.092C344.942 66.092 353.769 56.992 353.769 46.345C353.769 22.958 316.732 31.057 316.732 19.318C316.732 15.314 320.099 12.038 328.835 12.038C334.477 12.038 340.574 13.676 346.489 17.043L351.039 5.85C345.124 2.119 336.934 0.207999 328.926 0.207999C310.817 0.207999 302.081 9.217 302.081 20.046C302.081 43.706 339.118 35.516 339.118 47.437C339.118 51.35 335.569 54.262 326.833 54.262C319.189 54.262 311.181 51.532 305.812 47.619L300.807 58.721C306.449 63.089 316.641 66.092 326.742 66.092ZM72.352 159L72.17 95.3H60.067L36.589 134.885L12.747 95.3H0.553V159H14.385V121.599L33.04 152.266H39.683L58.429 120.78L58.52 159H72.352ZM115.766 160.092C133.875 160.092 144.613 149.718 144.613 130.972V95.3H130.053V130.426C130.053 142.529 124.866 147.534 115.857 147.534C106.939 147.534 101.661 142.529 101.661 130.426V95.3H86.9191V130.972C86.9191 149.718 97.6571 160.092 115.766 160.092ZM180.111 160.092C198.311 160.092 207.138 150.992 207.138 140.345C207.138 116.958 170.101 125.057 170.101 113.318C170.101 109.314 173.468 106.038 182.204 106.038C187.846 106.038 193.943 107.676 199.858 111.043L204.408 99.85C198.493 96.119 190.303 94.208 182.295 94.208C164.186 94.208 155.45 103.217 155.45 114.046C155.45 137.706 192.487 129.516 192.487 141.437C192.487 145.35 188.938 148.262 180.202 148.262C172.558 148.262 164.55 145.532 159.181 141.619L154.176 152.721C159.818 157.089 170.01 160.092 180.111 160.092ZM217.211 159H231.953V95.3H217.211V159ZM277.556 160.092C288.658 160.092 297.849 156.088 303.855 148.717L294.391 139.981C290.114 144.986 284.745 147.534 278.375 147.534C266.454 147.534 257.991 139.162 257.991 127.15C257.991 115.138 266.454 106.766 278.375 106.766C284.745 106.766 290.114 109.314 294.391 114.228L303.855 105.492C297.849 98.212 288.658 94.208 277.647 94.208C257.809 94.208 243.067 107.949 243.067 127.15C243.067 146.351 257.809 160.092 277.556 160.092ZM387.72 107.13V95.3H339.581V159H354.323V135.795H383.807V123.965H354.323V107.13H387.72ZM412.351 147.17V132.428H441.926V120.962H412.351V107.13H445.839V95.3H397.7V159H447.022V147.17H412.351ZM479.682 160.092C497.882 160.092 506.709 150.992 506.709 140.345C506.709 116.958 469.672 125.057 469.672 113.318C469.672 109.314 473.039 106.038 481.775 106.038C487.417 106.038 493.514 107.676 499.429 111.043L503.979 99.85C498.064 96.119 489.874 94.208 481.866 94.208C463.757 94.208 455.021 103.217 455.021 114.046C455.021 137.706 492.058 129.516 492.058 141.437C492.058 145.35 488.509 148.262 479.773 148.262C472.129 148.262 464.121 145.532 458.752 141.619L453.747 152.721C459.389 157.089 469.581 160.092 479.682 160.092ZM529.089 159H543.831V107.312H564.215V95.3H508.705V107.312H529.089V159ZM572.147 159H586.889V95.3H572.147V159ZM648.243 95.3L628.587 140.8L609.204 95.3H593.279L620.761 159H635.321L662.894 95.3H648.243ZM713.672 159H729.142L700.659 95.3H686.099L657.707 159H672.813L678.455 145.35H708.03L713.672 159ZM683.187 134.157L693.288 109.769L703.389 134.157H683.187ZM735.751 159H782.434V146.988H750.493V95.3H735.751V159Z" fill="white"/>
</svg>
