<svg width="39" height="39" viewBox="0 0 39 39" fill="none" xmlns="http://www.w3.org/2000/svg">
<path d="M32.625 38.25H6.375C4.88316 38.25 3.45242 37.6574 2.39752 36.6025C1.34263 35.5476 0.75 34.1168 0.75 32.625V2.625C0.75 2.12772 0.947544 1.65081 1.29917 1.29917C1.65081 0.947544 2.12772 0.75 2.625 0.75H28.875C29.3723 0.75 29.8492 0.947544 30.2008 1.29917C30.5525 1.65081 30.75 2.12772 30.75 2.625V25.125H38.25V32.625C38.25 34.1168 37.6574 35.5476 36.6025 36.6025C35.5476 37.6574 34.1168 38.25 32.625 38.25ZM30.75 28.875V32.625C30.75 33.1223 30.9475 33.5992 31.2992 33.9508C31.6508 34.3025 32.1277 34.5 32.625 34.5C33.1223 34.5 33.5992 34.3025 33.9508 33.9508C34.3025 33.5992 34.5 33.1223 34.5 32.625V28.875H30.75ZM27 34.5V4.5H4.5V32.625C4.5 33.1223 4.69754 33.5992 5.04918 33.9508C5.40081 34.3025 5.87772 34.5 6.375 34.5H27ZM8.25 10.125H23.25V13.875H8.25V10.125ZM8.25 17.625H23.25V21.375H8.25V17.625ZM8.25 25.125H17.625V28.875H8.25V25.125Z" fill="white"/>
</svg>
