<svg width="20" height="20" viewBox="0 0 20 20" fill="none" xmlns="http://www.w3.org/2000/svg">
<path d="M0 10.0003C0 9.13531 0.11 8.29731 0.316 7.4963C0.868465 7.52535 1.4182 7.40106 1.90444 7.13717C2.39068 6.87329 2.79448 6.48009 3.07121 6.00105C3.34793 5.522 3.48681 4.97577 3.47247 4.42273C3.45814 3.86968 3.29117 3.33137 2.99 2.8673C4.19894 1.67787 5.69079 0.8158 7.325 0.362305C7.57599 0.855777 7.95864 1.27017 8.43058 1.55961C8.90253 1.84906 9.44537 2.00226 9.999 2.00226C10.5526 2.00226 11.0955 1.84906 11.5674 1.55961C12.0394 1.27017 12.422 0.855777 12.673 0.362305C14.3072 0.8158 15.7991 1.67787 17.008 2.8673C16.7065 3.33146 16.5393 3.86997 16.5248 4.42327C16.5104 4.97657 16.6493 5.52307 16.9262 6.00232C17.2031 6.48156 17.6071 6.87487 18.0937 7.13872C18.5802 7.40257 19.1303 7.52667 19.683 7.4973C19.889 8.2973 19.999 9.13531 19.999 10.0003C19.999 10.8653 19.889 11.7033 19.683 12.5043C19.1305 12.4751 18.5806 12.5992 18.0942 12.863C17.6078 13.1268 17.2039 13.52 16.927 13.9991C16.6502 14.4782 16.5112 15.0245 16.5255 15.5776C16.5398 16.1308 16.7068 16.6692 17.008 17.1333C15.7991 18.3227 14.3072 19.1848 12.673 19.6383C12.422 19.1448 12.0394 18.7304 11.5674 18.441C11.0955 18.1516 10.5526 17.9984 9.999 17.9984C9.44537 17.9984 8.90253 18.1516 8.43058 18.441C7.95864 18.7304 7.57599 19.1448 7.325 19.6383C5.69079 19.1848 4.19894 18.3227 2.99 17.1333C3.29151 16.6692 3.45873 16.1306 3.47317 15.5773C3.48761 15.024 3.3487 14.4775 3.07181 13.9983C2.79492 13.519 2.39085 13.1257 1.90431 12.8619C1.41776 12.598 0.867704 12.4739 0.315 12.5033C0.11 11.7043 0 10.8663 0 10.0003ZM4.804 13.0003C5.434 14.0913 5.614 15.3463 5.368 16.5243C5.776 16.8143 6.21 17.0653 6.665 17.2743C7.58167 16.4531 8.76931 15.9994 10 16.0003C11.26 16.0003 12.438 16.4713 13.335 17.2743C13.79 17.0653 14.224 16.8143 14.632 16.5243C14.3794 15.3203 14.5803 14.0654 15.196 13.0003C15.8106 11.9347 16.797 11.1335 17.966 10.7503C18.0122 10.2514 18.0122 9.74924 17.966 9.25031C16.7966 8.86736 15.8099 8.06612 15.195 7.0003C14.5793 5.93523 14.3784 4.68034 14.631 3.4763C14.2231 3.18623 13.7889 2.93512 13.334 2.7263C12.4176 3.54724 11.2303 4.00091 10 4.0003C8.76931 4.00116 7.58167 3.54747 6.665 2.7263C6.21013 2.93513 5.77589 3.18623 5.368 3.4763C5.62056 4.68034 5.41972 5.93523 4.804 7.0003C4.18937 8.06593 3.20298 8.86715 2.034 9.25031C1.98775 9.74924 1.98775 10.2514 2.034 10.7503C3.20335 11.1332 4.19013 11.9345 4.805 13.0003H4.804ZM10 13.0003C9.20435 13.0003 8.44129 12.6842 7.87868 12.1216C7.31607 11.559 7 10.796 7 10.0003C7 9.20466 7.31607 8.44159 7.87868 7.87898C8.44129 7.31637 9.20435 7.0003 10 7.0003C10.7956 7.0003 11.5587 7.31637 12.1213 7.87898C12.6839 8.44159 13 9.20466 13 10.0003C13 10.796 12.6839 11.559 12.1213 12.1216C11.5587 12.6842 10.7956 13.0003 10 13.0003ZM10 11.0003C10.2652 11.0003 10.5196 10.8949 10.7071 10.7074C10.8946 10.5199 11 10.2655 11 10.0003C11 9.73509 10.8946 9.48073 10.7071 9.2932C10.5196 9.10566 10.2652 9.00031 10 9.00031C9.73478 9.00031 9.48043 9.10566 9.29289 9.2932C9.10536 9.48073 9 9.73509 9 10.0003C9 10.2655 9.10536 10.5199 9.29289 10.7074C9.48043 10.8949 9.73478 11.0003 10 11.0003Z" fill="white"/>
</svg>
